<?xml version="1.0" encoding="UTF-8"?>
<svg width="36" height="36" viewBox="0 0 36 36" fill="none" xmlns="http://www.w3.org/2000/svg">
<path fill="#484848" d="M27.984 1.39499L9.69603 19.683C8.99754 20.3777 8.4438 21.2041 8.06685 22.1143C7.68991 23.0244 7.49725 24.0003 7.50003 24.9855V27C7.50003 27.3978 7.65807 27.7793 7.93937 28.0606C8.22067 28.342 8.6022 28.5 9.00003 28.5H11.0145C11.9997 28.5028 12.9756 28.3101 13.8858 27.9332C14.7959 27.5562 15.6223 27.0025 16.317 26.304L34.605 8.01599C35.4816 7.13724 35.9739 5.9467 35.9739 4.70549C35.9739 3.46427 35.4816 2.27373 34.605 1.39499C33.7135 0.542827 32.5278 0.0672607 31.2945 0.0672607C30.0613 0.0672607 28.8755 0.542827 27.984 1.39499ZM32.484 5.89499L14.196 24.183C13.3502 25.0236 12.207 25.4969 11.0145 25.5H10.5V24.9855C10.5032 23.793 10.9764 22.6498 11.817 21.804L30.105 3.51599C30.4254 3.20992 30.8514 3.03913 31.2945 3.03913C31.7376 3.03913 32.1636 3.20992 32.484 3.51599C32.7989 3.83176 32.9758 4.25952 32.9758 4.70549C32.9758 5.15145 32.7989 5.57921 32.484 5.89499Z"/>
<path fill="#484848" d="M34.5 13.4685C34.1022 13.4685 33.7206 13.6265 33.4393 13.9078C33.158 14.1891 33 14.5707 33 14.9685V22.5H27C25.8065 22.5 24.6619 22.9741 23.818 23.818C22.9741 24.6619 22.5 25.8065 22.5 27V33H7.5C6.30653 33 5.16193 32.5259 4.31802 31.682C3.47411 30.8381 3 29.6935 3 28.5V7.5C3 6.30653 3.47411 5.16193 4.31802 4.31802C5.16193 3.47411 6.30653 3 7.5 3H21.063C21.4608 3 21.8424 2.84197 22.1237 2.56066C22.405 2.27936 22.563 1.89782 22.563 1.5C22.563 1.10218 22.405 0.720644 22.1237 0.43934C21.8424 0.158035 21.4608 0 21.063 0L7.5 0C5.51161 0.00238179 3.60534 0.793323 2.19933 2.19933C0.793323 3.60534 0.00238179 5.51161 0 7.5L0 28.5C0.00238179 30.4884 0.793323 32.3947 2.19933 33.8007C3.60534 35.2067 5.51161 35.9976 7.5 36H24.5145C25.4999 36.0028 26.476 35.8102 27.3864 35.4332C28.2969 35.0563 29.1235 34.5025 29.8185 33.804L33.8025 29.817C34.5011 29.1223 35.0551 28.296 35.4323 27.3858C35.8095 26.4757 36.0024 25.4997 36 24.5145V14.9685C36 14.5707 35.842 14.1891 35.5607 13.9078C35.2794 13.6265 34.8978 13.4685 34.5 13.4685ZM27.6975 31.683C27.0945 32.2845 26.332 32.7009 25.5 32.883V27C25.5 26.6022 25.658 26.2206 25.9393 25.9393C26.2206 25.658 26.6022 25.5 27 25.5H32.8875C32.7019 26.3303 32.286 27.0914 31.6875 27.696L27.6975 31.683Z"/>
</svg>
