<?xml version="1.0" encoding="UTF-8"?>
<svg xmlns="http://www.w3.org/2000/svg" id="Layer_1" data-name="Layer 1" viewBox="0 0 24 24" width="512" height="512"><path d="M16,24a4.955,4.955,0,0,1-2.38-.6,6.117,6.117,0,0,1-5.767-.29,5,5,0,1,1-1.488-8.92A5.955,5.955,0,0,1,11,12,6.017,6.017,0,0,1,15.5,14.025a5.03,5.03,0,0,1,4.531,2.007A3.56,3.56,0,0,1,20.5,16a3.5,3.5,0,1,1-1.226,6.779A4.986,4.986,0,0,1,16,24Zm-2.307-2.968.547.4a3.072,3.072,0,0,0,4.068-.514l.586-.7.753.521A1.484,1.484,0,0,0,20.5,21a1.5,1.5,0,1,0-.563-2.891l-.848.341-.415-.813a3.044,3.044,0,0,0-3.368-1.557l-.654.153-.389-.547a4,4,0,0,0-6.678.23l-.472.771L6.3,16.3a3,3,0,1,0,.807,4.842L7.75,20.5l.7.578a4.087,4.087,0,0,0,4.674.313ZM5,12c.092,0,.183.009.274.013a1.984,1.984,0,0,1,2.6-.8l1,.492.378-1.051a3.97,3.97,0,0,1,7.153-.719l.473.778.818-.4A2.966,2.966,0,0,1,19,10a3,3,0,0,1,2.765,4.162,5.462,5.462,0,0,1,1.827.81A4.995,4.995,0,0,0,19,8a4.812,4.812,0,0,0-1.375.2A5.934,5.934,0,0,0,13,6,6,6,0,0,0,7.779,9.08,3.78,3.78,0,0,0,7,9a4,4,0,0,0-3.927,3.276A6.968,6.968,0,0,1,5,12ZM1.443,10.782A5.973,5.973,0,0,1,2.531,9.023,2.475,2.475,0,0,1,2,7.5,2.5,2.5,0,0,1,4.5,5a2.446,2.446,0,0,1,1.169.309l1.137.611.308-1.254a3.48,3.48,0,0,1,6.541-.65l.5,1.048.965-.643a2.486,2.486,0,0,1,3.646,1.033l.32.688a5.772,5.772,0,0,1,1.4.021,6.951,6.951,0,0,1,2.5,1.083C22.982,7.163,23,7.084,23,7a3,3,0,0,0-2.763-2.99,4.483,4.483,0,0,0-5.3-1.731,5.474,5.474,0,0,0-9.392.851A4.269,4.269,0,0,0,4.5,3a4.486,4.486,0,0,0-3.057,7.782Z"/></svg>
