<svg width="96" height="96" viewBox="0 0 96 96" fill="none" xmlns="http://www.w3.org/2000/svg">
<rect width="96" height="96" rx="48" fill="black"/>
<path d="M38.376 17V21.224C36.8187 21.224 35.4 21.384 34.12 21.704C32.8613 22.0027 31.88 22.5253 31.176 23.272C30.4933 24.0187 30.2053 25.0427 30.312 26.344L31.656 39.464C31.848 41.256 31.7413 42.7387 31.336 43.912C30.9307 45.0853 30.248 46.0027 29.288 46.664C28.3493 47.3253 27.144 47.7947 25.672 48.072C27.1653 48.328 28.392 48.776 29.352 49.416C30.312 50.0347 30.984 50.9307 31.368 52.104C31.752 53.256 31.848 54.7813 31.656 56.68L30.312 69.8C30.2053 71.1227 30.4933 72.1573 31.176 72.904C31.8587 73.6507 32.84 74.1733 34.12 74.472C35.4 74.7707 36.8187 74.92 38.376 74.92V79.144C36.584 79.144 34.8667 78.984 33.224 78.664C31.5813 78.3653 30.1307 77.8427 28.872 77.096C27.6133 76.3493 26.664 75.3253 26.024 74.024C25.384 72.744 25.1707 71.1227 25.384 69.16L26.664 57C26.8347 55.528 26.696 54.2907 26.248 53.288C25.8213 52.2853 24.8827 51.528 23.432 51.016C22.0027 50.4827 19.8587 50.216 17 50.216V45.928C19.8587 45.928 22.0027 45.672 23.432 45.16C24.8827 44.648 25.8213 43.8907 26.248 42.888C26.696 41.8853 26.8347 40.6587 26.664 39.208L25.384 26.984C25.1707 25.0213 25.384 23.4 26.024 22.12C26.664 20.8187 27.6027 19.7947 28.84 19.048C30.0987 18.3013 31.5493 17.7787 33.192 17.48C34.856 17.16 36.584 17 38.376 17Z" fill="#FFDD28"/>
<path d="M57.359 17C59.151 17 60.8683 17.16 62.511 17.48C64.1537 17.7787 65.6043 18.3013 66.863 19.048C68.1217 19.7947 69.071 20.8187 69.711 22.12C70.3723 23.4 70.5857 25.0213 70.351 26.984L69.071 39.208C68.9003 40.6587 69.0817 41.8853 69.615 42.888C70.1697 43.8907 71.1723 44.648 72.623 45.16C74.0737 45.672 76.111 45.928 78.735 45.928V50.216C76.1323 50.216 74.095 50.4827 72.623 51.016C71.1723 51.528 70.1697 52.2853 69.615 53.288C69.0817 54.2907 68.9003 55.528 69.071 57L70.351 69.16C70.5643 71.1227 70.351 72.744 69.711 74.024C69.071 75.3253 68.1217 76.3493 66.863 77.096C65.6257 77.8427 64.175 78.3653 62.511 78.664C60.8683 78.984 59.151 79.144 57.359 79.144V74.92C58.9163 74.92 60.3243 74.7707 61.583 74.472C62.863 74.1733 63.855 73.6507 64.559 72.904C65.263 72.1573 65.551 71.1227 65.423 69.8L64.079 56.68C63.887 54.7813 63.9937 53.256 64.399 52.104C64.8043 50.9307 65.5297 50.0347 66.575 49.416C67.6417 48.7973 69.039 48.3707 70.767 48.136C69.103 47.8587 67.7377 47.3787 66.671 46.696C65.6257 46.0133 64.8897 45.0853 64.463 43.912C64.0363 42.7387 63.9083 41.256 64.079 39.464L65.423 26.344C65.551 25.0427 65.263 24.0187 64.559 23.272C63.855 22.5253 62.8737 22.0027 61.615 21.704C60.3563 21.384 58.9377 21.224 57.359 21.224V17Z" fill="#FFDD28"/>
</svg>
