<svg xmlns="http://www.w3.org/2000/svg" version="1.1" viewBox="0 0 1368 1120" width="310" height="256">
<path transform="translate(675,268)" d="m0 0h14l11 4 6 5 13 18 11 16 10 14 11 16 14 20 12 17 13 19 12 17 16 23 9 13 12 17 14 20 9 16 8 21 3 14 1 8v23l-3 18-9 25-3 6 4-2 18-11 20-12 18-10 31-15 27-11 36-13 39-11 17-4 2-1 1-15v-15l-3-21-5-21-6-16-9-20-1-3v-14l6-12 7-6 9-4h11l9 3 9 7 9 15 7 17 7 19 5 21 4 26 1 28 70-6 23-1h34l10 2 8 5 8 9 3 7 1 7-2 10-7 10-8 6-8 2-14 1-44 1-42 3-40 5-24 4-42 10-21 6-29 10-26 10-45 22-25 14-15 10-19 13-16 12-14 11-14 12-13 12-11 11-6 5-5 6-18 18-7 8-12 14-11 13-10 13-9 12-12 17-10 15-9 10-8 5-4 1h-14l-8-4-7-6-14-19-14-20-10-13-13-17-10-11-9-11-12-13-7-8-26-26-8-7-15-13-10-8-14-11-13-10-23-15-25-15-26-14-23-11-35-14-45-14-33-8-36-6-22-3-26-3-28-2-64-2-8-3-6-5-6-10-2-6v-8l3-10 9-10 9-5 8-1h33l38 2 52 5 5 1-1-4v-13l3-27 6-27 7-21 9-21 8-13 8-7 6-3 6-1h9l10 4 8 8 4 8 1 3v12l-5 13-7 14-10 33-3 22v20l1 9 8 3 30 8 29 9 33 12 28 12 16 8 27 14 15 9 19 12 7 5-3-9-7-18-4-19v-29l3-17 5-15 7-16 7-10 10-15 12-17 32-46 7-10 10-14 9-13 11-16 21-30 12-17 13-19 9-12 7-6z" fill="#FEFEFE"/>
<path transform="translate(236,941)" d="m0 0h892l10 3 8 6 4 5 4 12-1 10-6 12-7 6-12 4-41 1h-229l-621-1-10-3-7-5-6-10-2-5v-11l5-12 5-6 10-5z" fill="#FEFEFE"/>
<path transform="translate(679,99)" d="m0 0h8l10 3 8 6 7 8 14 19 16 21 14 19 16 21 13 18 10 13 12 16 16 21 8 11 12 16 16 21 10 14 10 13 14 19 4 8 1 4v8l-3 10-7 9-6 4-8 2h-14l-7-3-4-3v-2h-2l-13-17-14-19-16-21-33-44-14-19-10-13-14-19-16-21-27-36-7-9-10 12-10 14-16 21-13 18-10 13-51 68-16 21-14 19-16 21-7 9-5 5-7 4-4 1h-14l-8-3-7-5-5-9-2-5v-11l4-11 14-19 10-13 14-19 10-13 14-19 10-13 14-19 10-13 14-19 10-13 14-19 10-13 14-19 10-13 14-19 7-9 10-6z" fill="#FEFEFE"/>
<path transform="translate(1082,679)" d="m0 0h43l17 3 8 5 6 7 4 10v11l-4 10-6 7-10 5-10 2-30-2-9 25-8 19-10 19-11 16-9 12-11 12-13 13-11 9-15 11-24 14-18 8-8 2h-7l-12-5-8-8-4-8-1-11 2-9 4-6 5-5 9-6 21-11 11-7 12-9 12-11 8-8 12-16 9-15 9-19-29 7-38 12-24 10-23 11-25 15-16 11-14 11-14 12-8 7-10 9-8 8-7 8-9 10-5 4-11 5h-9l-11-4-7-5-4-6-4-11 1-10 6-12 12-14 11-12 9-9 8-7 15-13 14-11 16-12 15-10 20-12 38-19 25-10 24-8 26-7 34-7 34-4z" fill="#FEFEFE"/>
<path transform="translate(244,679)" d="m0 0h39l33 3 32 5 30 7 30 9 28 11 33 16 15 8 13 8 22 15 13 10 17 14 3 2v2l4 2 13 12 22 22 7 8 6 10 2 6v9l-4 10-6 8-12 6-3 1h-10l-12-6-7-6-7-8-14-15-7-7-8-7-15-13-24-18-18-11-15-9-24-12-28-11-32-10-29-7 10 22 9 14 9 12 14 15 11 9 14 10 24 13 11 6 8 9 3 7 1 8-2 10-7 10-5 4-9 4-8 1-9-2-23-10-20-12-16-12-13-11-15-15-9-11-13-18-13-24-8-19-7-20v-6l-36 2-12-4-8-7-5-9-1-3v-14l6-12 6-5 10-4z" fill="#FEFEFE"/>
<path transform="translate(1236,602)" d="m0 0h16l10 5 6 7 4 10v13l-6 23-10 31-12 38-9 29-12 38-9 29-13 42-9 29-6 16-5 8-8 6-7 3h-13l-10-4-6-5-6-12-1-10 6-23 12-38 18-58 15-47 8-26 13-42 10-33 6-15 5-7 10-6z" fill="#FEFEFE"/>
<path transform="translate(114,602)" d="m0 0h15l10 5 5 4 5 8 8 22 8 27 8 26 13 41 10 32 13 42 17 54 9 31v13l-6 12-7 6-11 4h-11l-10-4-7-7-5-10-7-21-7-22-13-42-10-33-6-18-6-20-18-57-15-48-3-11v-11l5-12 7-7z" fill="#FEFEFE"/>
<path transform="translate(293,307)" d="m0 0h20l10 4 7 6 5 8 2 7v8l-3 9-4 6-8 7-10 3-5 1-23 2-23 5-18 6-24 13-14 11-6 6h-2v2l-7 6-9 11-7 10-11 19-7 6-9 4h-12l-9-4-6-4-5-6-4-10v-10l4-13 8-13 9-13 9-11 11-12 8-8h2v-2l11-9 13-10 19-11 17-8 17-6 26-6 18-3z" fill="#FEFEFE"/>
<path transform="translate(1051,307)" d="m0 0h22l29 4 25 6 16 6 22 10 17 11 14 11 13 12 13 13 9 11 12 17 9 16 3 9v10l-6 12-9 8-10 4h-9l-11-4-8-7-10-17-11-15-9-10-10-10-16-12-16-9-11-5-23-7-14-3-25-2-12-3-6-4-7-9-3-9v-10l4-11 8-8z" fill="#FEFEFE"/>
</svg>